<svg width="24" height="24" viewBox="0 0 24 24" fill="none" xmlns="http://www.w3.org/2000/svg">
<path d="M9.64258 22.3066C9.38275 22.6064 8.94962 22.6868 8.59961 22.5C8.24971 22.3132 8.07538 21.909 8.17969 21.5264L10.1377 14.3496L5.25 14.3496C4.91732 14.3496 4.61486 14.1561 4.47656 13.8535C4.33836 13.5509 4.38959 13.1948 4.60742 12.9434L14.3574 1.69336C14.6172 1.39356 15.0504 1.31323 15.4004 1.5C15.7503 1.6868 15.9247 2.09097 15.8203 2.47363L13.8623 9.65039L18.75 9.65039C19.0827 9.6504 19.3852 9.84391 19.5234 10.1465C19.6616 10.4492 19.6104 10.8052 19.3926 11.0566L9.64258 22.3066ZM16.8896 11.3496L12.75 11.3496C12.4851 11.3496 12.235 11.2262 12.0742 11.0156C11.9136 10.8052 11.8601 10.5318 11.9297 10.2764L13.1982 5.62695L7.11035 12.6504L11.25 12.6504C11.5149 12.6504 11.765 12.7738 11.9258 12.9844C12.0864 13.1948 12.14 13.4682 12.0703 13.7236L10.8027 18.374L16.8896 11.3496Z" fill="#0C0C14" stroke="#0C0C14" stroke-width="0.2" stroke-linecap="round" stroke-linejoin="round"/>
</svg>
