<svg width="20" height="20" viewBox="0 0 20 20" fill="none" xmlns="http://www.w3.org/2000/svg">
<path d="M16.25 2.40039C17.6859 2.40039 18.8496 3.56406 18.8496 5V15C18.8496 16.4359 17.6859 17.5996 16.25 17.5996H3.75C2.31406 17.5996 1.15039 16.4359 1.15039 15V5C1.15039 3.56406 2.31406 2.40039 3.75 2.40039H16.25ZM3.75 3.84961C3.11487 3.84961 2.59961 4.36487 2.59961 5V15C2.59961 15.6351 3.11487 16.1504 3.75 16.1504H16.25C16.8851 16.1504 17.4004 15.6351 17.4004 15V5C17.4004 4.36487 16.8851 3.84961 16.25 3.84961H3.75ZM11.4883 8.85059C11.6939 8.58276 12.1138 8.58271 12.3193 8.85059L16.1963 13.9033C16.5847 14.4094 16.1935 15.0996 15.5576 15.0996H4.44238C3.80654 15.0996 3.41531 14.4094 3.80371 13.9033L6.42871 10.4824C6.63431 10.2145 7.05416 10.2145 7.25977 10.4824L8.74707 12.4219L11.4883 8.85059ZM8.125 6.15039C8.87058 6.15039 9.47461 6.75442 9.47461 7.5C9.47461 8.24558 8.87058 8.84961 8.125 8.84961C7.37942 8.84961 6.77539 8.24558 6.77539 7.5C6.77539 6.75442 7.37942 6.15039 8.125 6.15039Z" fill="#0C0C14" stroke="#0C0C14" stroke-width="0.2"/>
</svg>
