<?xml version='1.0' encoding='utf-8'?>
<svg xmlns="http://www.w3.org/2000/svg" viewBox="0 0 24 24" fill="none">
  <path d="M0 2.5C0 1.11929 1.11929 0 2.5 0H21.5C22.8807 0 24 1.11929 24 2.5V21.5C24 22.8807 22.8807 24 21.5 24H2.5C1.11929 24 0 22.8807 0 21.5V2.5Z" fill="#DADBE0" />
  <path fill-rule="evenodd" clip-rule="evenodd" d="M15.8751 8.86255C15.8751 10.0292 14.9292 10.9751 13.7623 10.9751C12.5954 10.9751 11.6495 10.0292 11.6495 8.86255C11.6495 7.69588 12.5954 6.75 13.7623 6.75C14.9292 6.75 15.8751 7.69588 15.8751 8.86255ZM16.7501 8.86255C16.7501 10.5125 15.4124 11.8501 13.7623 11.8501C13.0965 11.8501 12.4817 11.6324 11.985 11.2643L8.63167 14.6675L9.83365 15.8694C10.0045 16.0403 10.0045 16.3173 9.83365 16.4881C9.66279 16.659 9.38577 16.659 9.21491 16.4881L8.01522 15.2885L7.12491 16.1788L8.3246 17.3784C8.49546 17.5492 8.49546 17.8262 8.3246 17.9971C8.15373 18.1679 7.87671 18.1679 7.70585 17.9971L6.50617 16.7975C6.16445 16.4558 6.16445 15.9018 6.50617 15.5601L7.7047 14.3616L11.3654 10.6464C10.9942 10.1486 10.7745 9.53122 10.7745 8.86255C10.7745 7.21257 12.1122 5.875 13.7623 5.875C15.4124 5.875 16.7501 7.21257 16.7501 8.86255Z" fill="#3A3F4A" />
</svg>