<svg width="20" height="20" viewBox="0 0 20 20" fill="none" xmlns="http://www.w3.org/2000/svg">
<path d="M10 1.15039C10.4004 1.15039 10.7246 1.47459 10.7246 1.875V9.27539H18.125C18.5254 9.27539 18.8496 9.59959 18.8496 10C18.8496 10.3502 18.6016 10.6422 18.2715 10.71L18.125 10.7246H10.7246V18.125C10.7246 18.5254 10.4004 18.8496 10 18.8496C9.59959 18.8496 9.27539 18.5254 9.27539 18.125V10.7246H1.875C1.47459 10.7246 1.15039 10.4004 1.15039 10C1.15039 9.59959 1.47459 9.27539 1.875 9.27539H9.27539V1.875C9.27539 1.47459 9.59959 1.15039 10 1.15039Z" fill="#0C0C14" stroke="#0C0C14" stroke-width="0.2" stroke-linecap="round" stroke-linejoin="round"/>
</svg>
