<svg width="20" height="21" viewBox="0 0 20 21" fill="none" xmlns="http://www.w3.org/2000/svg">
<path fill-rule="evenodd" clip-rule="evenodd" d="M5.18306 5.68306C5.42714 5.43898 5.82286 5.43898 6.06694 5.68306L10 9.61612L13.9331 5.68306C14.1771 5.43898 14.5729 5.43898 14.8169 5.68306C15.061 5.92714 15.061 6.32286 14.8169 6.56694L10.8839 10.5L14.8169 14.4331C15.061 14.6771 15.061 15.0729 14.8169 15.3169C14.5729 15.561 14.1771 15.561 13.9331 15.3169L10 11.3839L6.06694 15.3169C5.82286 15.561 5.42714 15.561 5.18306 15.3169C4.93898 15.0729 4.93898 14.6771 5.18306 14.4331L9.11612 10.5L5.18306 6.56694C4.93898 6.32286 4.93898 5.92714 5.18306 5.68306Z" fill="#8F8D8A"/>
</svg>
