<svg width="24" height="24" viewBox="0 0 24 24" fill="none" xmlns="http://www.w3.org/2000/svg">
<path d="M12 1.40039C16.1974 1.40039 19.5996 4.80264 19.5996 9C19.5996 10.9021 18.901 12.6416 17.7461 13.9746C16.7344 15.1423 15.8496 16.4892 15.8496 18V18.75C15.8496 20.0089 15.3845 21.0005 14.6211 21.667C13.8764 22.3171 12.9159 22.5996 12 22.5996C11.0841 22.5996 10.1236 22.3171 9.37891 21.667C8.61554 21.0005 8.15039 20.0089 8.15039 18.75V18C8.15039 16.4892 7.26561 15.1423 6.25391 13.9746C5.09899 12.6416 4.40039 10.9021 4.40039 9C4.40039 4.80264 7.80264 1.40039 12 1.40039ZM9.84961 18.75C9.84961 19.562 10.1344 20.0709 10.4961 20.3867C10.8764 20.7188 11.4161 20.9004 12 20.9004C12.5839 20.9004 13.1236 20.7188 13.5039 20.3867C13.8656 20.0709 14.1504 19.562 14.1504 18.75V18.0996H9.84961V18.75ZM12 3.09961C8.74152 3.09961 6.09961 5.74152 6.09961 9C6.09961 10.4779 6.64173 11.8256 7.53906 12.8613C8.32343 13.7667 9.21198 14.9631 9.62109 16.4004H14.3789C14.788 14.9631 15.6766 13.7667 16.4609 12.8613C17.3583 11.8256 17.9004 10.4779 17.9004 9C17.9004 5.74152 15.2585 3.09961 12 3.09961ZM11.25 4.40039C11.7194 4.40039 12.0996 4.78056 12.0996 5.25C12.0996 5.71944 11.7194 6.09961 11.25 6.09961C10.0626 6.09961 9.09961 7.06259 9.09961 8.25C9.09961 8.71944 8.71944 9.09961 8.25 9.09961C7.78056 9.09961 7.40039 8.71944 7.40039 8.25C7.40039 6.1237 9.1237 4.40039 11.25 4.40039Z" fill="#0C0C14" stroke="#0C0C14" stroke-width="0.2" stroke-linecap="round" stroke-linejoin="round"/>
</svg>
