<svg width="20" height="20" viewBox="0 0 20 20" fill="none" xmlns="http://www.w3.org/2000/svg">
<path d="M13.75 13.6504C14.9345 13.6504 15.9323 14.4415 16.2461 15.5254H18.125C18.5255 15.5254 18.8496 15.8506 18.8496 16.25C18.8496 16.6494 18.5255 16.9746 18.125 16.9746H16.2461C15.9323 18.0585 14.9345 18.8496 13.75 18.8496C12.5655 18.8496 11.5677 18.0585 11.2539 16.9746H1.875C1.82937 16.9746 1.7846 16.9711 1.74121 16.9629L1.61621 16.9268C1.34407 16.8221 1.15039 16.5591 1.15039 16.25C1.15039 15.8506 1.47448 15.5254 1.875 15.5254H11.2539C11.5677 14.4415 12.5655 13.6504 13.75 13.6504ZM13.75 15.0996C13.1149 15.0996 12.5996 15.6143 12.5996 16.25C12.5996 16.8857 13.1149 17.4004 13.75 17.4004C14.3851 17.4004 14.9004 16.8857 14.9004 16.25C14.9004 15.6143 14.3851 15.0996 13.75 15.0996ZM6.25 7.40039C7.43452 7.40039 8.4323 8.19151 8.74609 9.27539H18.125C18.2308 9.27539 18.332 9.29758 18.4238 9.33984H18.4248C18.4944 9.37128 18.5581 9.41404 18.6133 9.46484L18.7109 9.57422C18.7982 9.69363 18.8496 9.84035 18.8496 10C18.8496 10.2152 18.7564 10.4082 18.6084 10.541L18.6074 10.54C18.5753 10.5699 18.5427 10.5947 18.5088 10.6143H18.5078L18.4561 10.6436L18.4531 10.6455C18.3544 10.6967 18.2427 10.7246 18.125 10.7246H8.74609C8.4323 11.8085 7.43452 12.5996 6.25 12.5996C5.06548 12.5996 4.0677 11.8085 3.75391 10.7246H1.86719L1.77344 10.7178L1.7666 10.7168C1.62034 10.6954 1.48914 10.6289 1.38574 10.5342L1.29199 10.4307C1.20328 10.3096 1.15039 10.1616 1.15039 10V9.99219L1.1582 9.89453L1.15918 9.88672C1.17889 9.76226 1.22952 9.64854 1.30371 9.55469L1.35645 9.49414C1.48776 9.35951 1.67158 9.27539 1.875 9.27539H3.75391C4.0677 8.19151 5.06548 7.40039 6.25 7.40039ZM6.25 8.84961C5.61485 8.84961 5.09961 9.36434 5.09961 10C5.09961 10.6357 5.61485 11.1504 6.25 11.1504C6.88515 11.1504 7.40039 10.6357 7.40039 10C7.40039 9.36434 6.88515 8.84961 6.25 8.84961ZM13.75 1.15039C14.9345 1.15039 15.9323 1.94151 16.2461 3.02539H18.125C18.5255 3.02539 18.8496 3.35063 18.8496 3.75C18.8496 4.14937 18.5255 4.47461 18.125 4.47461H16.2461C15.9323 5.55849 14.9345 6.34961 13.75 6.34961C12.5655 6.34961 11.5677 5.55849 11.2539 4.47461H1.875C1.47448 4.47461 1.15039 4.14937 1.15039 3.75C1.15039 3.59739 1.19664 3.45525 1.27734 3.33887C1.40788 3.14947 1.6271 3.02539 1.875 3.02539H11.2539C11.5677 1.94151 12.5655 1.15039 13.75 1.15039ZM13.75 2.59961C13.1149 2.59961 12.5996 3.11434 12.5996 3.75C12.5996 4.38566 13.1149 4.90039 13.75 4.90039C14.3851 4.90039 14.9004 4.38566 14.9004 3.75C14.9004 3.11434 14.3851 2.59961 13.75 2.59961Z" fill="#0C0C14" stroke="#0C0C14" stroke-width="0.2"/>
</svg>
