<svg width="20" height="20" viewBox="0 0 20 20" fill="none" xmlns="http://www.w3.org/2000/svg">
<path d="M10 0.525391C15.2329 0.525391 19.4746 4.7671 19.4746 10C19.4746 10.3445 19.4569 10.685 19.4209 11.0205C19.2562 12.5569 17.858 13.4395 16.5059 13.4395H10.877C9.8439 13.4395 9.33461 14.6958 10.0762 15.415L11.1055 16.4131C11.6468 16.9381 11.8154 17.6765 11.6162 18.3115C11.4098 18.9692 10.8159 19.4746 10 19.4746C4.7671 19.4746 0.525391 15.2329 0.525391 10C0.525391 4.7671 4.7671 0.525391 10 0.525391ZM10 1.97461C5.56791 1.97461 1.97461 5.56791 1.97461 10C1.97461 14.4321 5.56791 18.0254 10 18.0254C10.0938 18.0254 10.1409 17.9998 10.1641 17.9824C10.1904 17.9626 10.2163 17.9292 10.2324 17.8779C10.2652 17.7735 10.2505 17.6033 10.0967 17.4541L9.06641 16.4561C7.38994 14.83 8.54138 11.9893 10.877 11.9893H16.5059C17.3157 11.9893 17.9123 11.4837 17.9785 10.8662C18.009 10.5819 18.0254 10.2929 18.0254 10C18.0254 5.56791 14.4321 1.97461 10 1.97461ZM5 9.90039C5.74558 9.90039 6.34961 10.5044 6.34961 11.25C6.34961 11.9956 5.74558 12.5996 5 12.5996C4.25442 12.5996 3.65039 11.9956 3.65039 11.25C3.65039 10.5044 4.25442 9.90039 5 9.90039ZM6.25 5.52539C6.99558 5.52539 7.59961 6.12942 7.59961 6.875C7.59961 7.62058 6.99558 8.22461 6.25 8.22461C5.50442 8.22461 4.90039 7.62058 4.90039 6.875C4.90039 6.12942 5.50442 5.52539 6.25 5.52539ZM14.375 5.52539C15.1206 5.52539 15.7246 6.12942 15.7246 6.875C15.7246 7.62058 15.1206 8.22461 14.375 8.22461C13.6294 8.22461 13.0254 7.62058 13.0254 6.875C13.0254 6.12942 13.6294 5.52539 14.375 5.52539ZM10.625 3.65039C11.3706 3.65039 11.9746 4.25442 11.9746 5C11.9746 5.74558 11.3706 6.34961 10.625 6.34961C9.87942 6.34961 9.27539 5.74558 9.27539 5C9.27539 4.25442 9.87942 3.65039 10.625 3.65039Z" fill="#6D4AFF" stroke="#6D4AFF" stroke-width="0.2"/>
</svg>
