<svg width="160" height="160" viewBox="0 0 160 160" fill="none" xmlns="http://www.w3.org/2000/svg">
<path fill-rule="evenodd" clip-rule="evenodd" d="M125.5 70C116.979 70 109.474 65.65 105.085 59.0495L76.75 71.5696V143.185L135.552 116.969V67.8497C132.485 69.2312 129.082 70 125.5 70ZM101 45.5C101 49.0692 101.763 52.4602 103.135 55.5186L74.7759 68.0336L48.3419 56.3683L105.713 31.0505C102.749 35.1015 101 40.0964 101 45.5ZM16.9538 42.5168L43.3881 54.1822L101.21 28.6653L74.7759 17L16.9538 42.5168ZM14 116.969V45.5881L72.75 71.5692V143.184L14 116.969ZM146 45.5C146 56.8218 136.822 66 125.5 66C114.178 66 105 56.8218 105 45.5C105 34.1782 114.178 25 125.5 25C136.822 25 146 34.1782 146 45.5ZM115.586 35.5858C116.367 34.8047 117.633 34.8047 118.414 35.5858L126 43.1716L133.586 35.5858C134.367 34.8047 135.633 34.8047 136.414 35.5858C137.195 36.3668 137.195 37.6332 136.414 38.4142L128.828 46L136.414 53.5858C137.195 54.3668 137.195 55.6332 136.414 56.4142C135.633 57.1953 134.367 57.1953 133.586 56.4142L126 48.8284L118.414 56.4142C117.633 57.1953 116.367 57.1953 115.586 56.4142C114.805 55.6332 114.805 54.3668 115.586 53.5858L123.172 46L115.586 38.4142C114.805 37.6332 114.805 36.3668 115.586 35.5858Z" fill="url(#paint0_linear_12133_8510)" fill-opacity="0.25"/>
<defs>
<linearGradient id="paint0_linear_12133_8510" x1="146" y1="25" x2="106.816" y2="67.6681" gradientUnits="userSpaceOnUse">
<stop stop-color="#DFDCD6"/>
<stop offset="1" stop-color="#A4A19D"/>
</linearGradient>
</defs>
</svg>
