<svg width="80" height="28" viewBox="0 0 80 28" fill="none" xmlns="http://www.w3.org/2000/svg">
<path d="M16.1357 18.2288C16.1357 19.1948 16.2919 19.9561 16.6045 20.511C16.938 21.0452 17.3969 21.4255 17.9805 21.6516C18.564 21.8777 19.2416 21.9905 20.0127 21.9905C21.1173 21.9905 22.055 21.7435 22.8262 21.2502C23.5972 20.757 24.2124 20.1512 24.6709 19.4319C25.0004 18.9235 25.2499 18.4288 25.4219 17.9495V9.25806H28.8916V24.6106H25.4219V19.2463C25.4012 19.3249 25.3817 19.408 25.3584 19.4934C25.2334 20.0277 25.0147 20.6134 24.7021 21.2502C24.4104 21.8668 24.0147 22.463 23.5146 23.0383C23.0353 23.5932 22.4305 24.0561 21.7012 24.426C20.9717 24.7755 20.0859 24.9504 19.0439 24.9504C18.2936 24.9504 17.5319 24.8474 16.7607 24.6418C16.0106 24.4569 15.3224 24.1378 14.6973 23.6858C14.093 23.2337 13.6036 22.617 13.2285 21.8362C12.8534 21.0551 12.666 20.0682 12.666 18.8762V9.25806H16.1357V18.2288ZM70.9961 8.91626C72.7261 8.9163 74.2683 9.23519 75.623 9.87231C76.9777 10.5094 78.0404 11.4342 78.8115 12.6467C79.6036 13.8388 80 15.2777 80 16.9631C80 18.6689 79.6035 20.1177 78.8115 21.3098C78.0404 22.5017 76.9777 23.4062 75.623 24.0227C74.2683 24.6393 72.7261 24.9475 70.9961 24.9475C69.2663 24.9475 67.7135 24.6393 66.3379 24.0227C64.9622 23.4062 63.878 22.5018 63.0859 21.3098C62.2941 20.1177 61.8985 18.6689 61.8984 16.9631C61.8984 15.2777 62.2941 13.8388 63.0859 12.6467C63.878 11.4341 64.9622 10.5095 66.3379 9.87231C67.7135 9.23523 69.2663 8.91626 70.9961 8.91626ZM7.4707 17.9114C7.47076 18.8772 7.62686 19.6378 7.93945 20.1926C8.09074 20.435 8.26795 20.6456 8.4707 20.8245C8.96037 21.2566 9.65252 21.3333 10.3096 21.3333H10.7715V24.6321C10.0212 24.6321 8.86681 24.529 8.0957 24.3235C7.34537 24.1385 6.6575 23.8195 6.03223 23.3674C5.42785 22.9153 4.93764 22.2988 4.5625 21.5178C4.1874 20.7368 4 19.7499 4 18.5579V3.05005H7.4707V17.9114ZM53.9229 8.91626C54.8397 8.91629 55.6736 9.03977 56.4238 9.28638C57.174 9.53301 57.8205 9.91323 58.3623 10.427C58.9249 10.9202 59.3622 11.5369 59.6748 12.2766C59.9874 13.0164 60.1445 13.8899 60.1445 14.8967V24.6086H56.6426V15.5754C56.6426 14.3217 56.3294 13.3971 55.7041 12.801C55.0998 12.1845 54.1412 11.8762 52.8281 11.8762C51.8277 11.8762 50.9109 12.0921 50.0771 12.5237C49.2644 12.9347 48.5971 13.4792 48.0762 14.1575C47.9324 14.3465 47.8076 14.5425 47.6982 14.7434C47.6991 14.7942 47.7012 14.8453 47.7012 14.8967V24.6086H44.2305V15.5754C44.2305 14.3219 43.918 13.3971 43.293 12.801C42.6885 12.1844 41.7292 11.8762 40.416 11.8762C39.4158 11.8763 38.4986 12.0921 37.665 12.5237C36.8522 12.9347 36.1851 13.4793 35.6641 14.1575C35.3398 14.5668 35.1 15.0039 34.9453 15.469V24.6086H31.4746V9.25513H34.9453V13.677C35.0644 13.2803 35.2197 12.8956 35.4141 12.5237C35.7683 11.8249 36.2377 11.2075 36.8213 10.6731C37.4048 10.1184 38.0929 9.68737 38.8848 9.37915C39.6768 9.0709 40.5521 8.91626 41.5107 8.91626C42.4069 8.91628 43.2301 9.03976 43.9805 9.28638C44.7516 9.53301 45.4082 9.91319 45.9502 10.427C46.5128 10.9202 46.9397 11.5368 47.2314 12.2766C47.3522 12.5623 47.4493 12.8681 47.5234 13.1936C47.6195 12.9565 47.7302 12.7224 47.8574 12.4924C48.2325 11.7938 48.7115 11.1771 49.2949 10.6428C49.8784 10.1085 50.5562 9.68743 51.3271 9.37915C52.1192 9.07085 52.9848 8.91626 53.9229 8.91626ZM70.9961 11.6907C69.9749 11.6907 69.0465 11.8968 68.2129 12.3079C67.3793 12.7189 66.7025 13.3151 66.1816 14.0959C65.6814 14.877 65.4307 15.8328 65.4307 16.9631C65.4307 18.0728 65.6814 19.0181 66.1816 19.7991C66.6818 20.58 67.3481 21.1664 68.1816 21.5569C69.0362 21.9474 69.9749 22.1418 70.9961 22.1418C71.9964 22.1418 72.9136 21.9473 73.7471 21.5569C74.5809 21.1664 75.2374 20.5801 75.7168 19.7991C76.217 19.0181 76.4668 18.0728 76.4668 16.9631C76.4668 15.8532 76.217 14.9073 75.7168 14.1262C75.2374 13.3453 74.5808 12.7492 73.7471 12.3381C72.9342 11.9066 72.0173 11.6907 70.9961 11.6907Z" fill="#0C0C14"/>
</svg>
