<svg width="20" height="20" viewBox="0 0 20 20" fill="none" xmlns="http://www.w3.org/2000/svg">
<path d="M13.125 4.90039C13.5253 4.9004 13.8496 5.2246 13.8496 5.625C13.8496 6.0254 13.5253 6.3496 13.125 6.34961H4.62891L3.31641 7.40039H18.75C19.0344 7.4004 19.2926 7.56624 19.4102 7.8252C19.5277 8.08423 19.4832 8.38846 19.2959 8.60254L10.5459 18.6025C10.4082 18.7599 10.209 18.8496 10 18.8496C9.79096 18.8496 9.59179 18.7599 9.4541 18.6025L0.704102 8.60254C0.573868 8.45367 0.510817 8.25757 0.52832 8.06055C0.545905 7.86362 0.642483 7.6821 0.796875 7.55859L3.92188 5.05859C4.05043 4.95575 4.21038 4.90039 4.375 4.90039H13.125ZM10 16.0596L12.7041 8.84961H7.2959L10 16.0596ZM7.92188 14.6494L5.74805 8.84961H2.84668L7.92188 14.6494ZM12.0771 14.6494L17.1523 8.84961H14.252L12.0771 14.6494ZM16.875 1.77539C16.9078 1.7754 16.9384 1.79134 16.957 1.81836L16.958 1.81934L16.959 1.82129C16.9602 1.82309 16.9625 1.82572 16.9648 1.8291L17.0566 1.9668C17.1158 2.05792 17.1952 2.18377 17.2744 2.32031C17.3534 2.45647 17.4335 2.60604 17.4941 2.74414C17.553 2.87806 17.5996 3.01611 17.5996 3.125V3.64941H18.125C18.2339 3.64942 18.3719 3.697 18.5059 3.75586C18.644 3.81657 18.7935 3.89656 18.9297 3.97559C19.0661 4.05471 19.1911 4.13418 19.2822 4.19336C19.3278 4.22299 19.3658 4.24827 19.3916 4.26562C19.4041 4.27406 19.4141 4.28052 19.4209 4.28516C19.4243 4.28748 19.4269 4.28978 19.4287 4.29102L19.4307 4.29199L19.4316 4.29297C19.4587 4.31164 19.4746 4.34215 19.4746 4.375C19.4746 4.3915 19.4713 4.4077 19.4639 4.42188L19.4316 4.45703C19.4312 4.45736 19.4296 4.45837 19.4287 4.45898C19.4269 4.46022 19.4243 4.46252 19.4209 4.46484C19.4141 4.46947 19.4041 4.47594 19.3916 4.48438C19.3658 4.50172 19.3278 4.52702 19.2822 4.55664C19.1911 4.61579 19.0661 4.69532 18.9297 4.77441C18.7935 4.8534 18.644 4.93346 18.5059 4.99414C18.3719 5.05296 18.2339 5.0996 18.125 5.09961H17.5996V5.625L17.5918 5.71191C17.5758 5.80286 17.5382 5.90549 17.4941 6.00586C17.4334 6.14404 17.3524 6.29345 17.2734 6.42969C17.1944 6.56594 17.1158 6.69117 17.0566 6.78223C17.027 6.82784 17.0017 6.8658 16.9844 6.8916C16.9759 6.90413 16.9695 6.9141 16.9648 6.9209C16.9625 6.92428 16.9602 6.92691 16.959 6.92871L16.958 6.93066L16.957 6.93164C16.9384 6.95867 16.9078 6.9746 16.875 6.97461C16.8421 6.97461 16.8116 6.95867 16.793 6.93164L16.792 6.93066L16.791 6.92871C16.7898 6.92691 16.7875 6.92428 16.7852 6.9209L16.6934 6.7832C16.6342 6.69206 16.5548 6.56625 16.4756 6.42969C16.3966 6.29348 16.3166 6.14401 16.2559 6.00586C16.197 5.87188 16.1494 5.73393 16.1494 5.625L16.1504 5.09961H15.625C15.5161 5.09961 15.378 5.05292 15.2441 4.99414C15.106 4.93346 14.9565 4.85243 14.8203 4.77344C14.6841 4.69441 14.5588 4.61575 14.4678 4.55664C14.4222 4.52703 14.3842 4.50172 14.3584 4.48438C14.3459 4.47595 14.3359 4.46948 14.3291 4.46484C14.3257 4.46253 14.3231 4.46022 14.3213 4.45898L14.3193 4.45801L14.3184 4.45703C14.2913 4.43836 14.2754 4.40785 14.2754 4.375C14.2754 4.34215 14.2913 4.31164 14.3184 4.29297L14.3193 4.29199L14.3213 4.29102C14.3231 4.28978 14.3257 4.28746 14.3291 4.28516L14.4668 4.19336C14.5579 4.13415 14.6838 4.05483 14.8203 3.97559C14.9565 3.89656 15.106 3.81657 15.2441 3.75586C15.3781 3.69701 15.5161 3.64941 15.625 3.64941H16.1504V3.125C16.1504 3.01611 16.197 2.87806 16.2559 2.74414C16.3165 2.60604 16.3966 2.45648 16.4756 2.32031C16.5548 2.18377 16.6342 2.05792 16.6934 1.9668L16.7852 1.8291C16.7875 1.82571 16.7898 1.82309 16.791 1.82129L16.792 1.81934L16.793 1.81836L16.8281 1.78613C16.8423 1.77866 16.8585 1.77539 16.875 1.77539Z" fill="#0C0C14" stroke="#0C0C14" stroke-width="0.2" stroke-linecap="round" stroke-linejoin="round"/>
</svg>
