<?xml version='1.0' encoding='utf-8'?>
<svg xmlns="http://www.w3.org/2000/svg" viewBox="0 0 24 24" fill="none">
  <path fill-rule="evenodd" clip-rule="evenodd" d="M24.01 20.9V7.25C24.01 6.0902 23.1142 5.15 22.0092 5.15H13.1388C12.6193 5.15 12.1138 4.97315 11.6982 4.646L8.87036 2.42C8.52402 2.14737 8.10278 2 7.66986 2H2.00083C0.895804 2 0 2.9402 0 4.1V20.9C0 22.0598 0.895804 23 2.00083 23H22.0092C23.1142 23 24.01 22.0598 24.01 20.9Z" fill="#F5A623" />
  <path d="M13.3725 20.0105C13.8887 20.0105 14.1873 19.4467 13.8844 19.044L10.3376 14.3281C10.1862 14.1267 9.87472 14.1267 9.72328 14.3281L7.14395 17.7576L5.70984 15.8508C5.55839 15.6494 5.24695 15.6494 5.0955 15.8508L2.69389 19.044C2.39102 19.4467 2.68965 20.0105 3.20584 20.0105H13.3725Z" fill="#C56708" />
  <path d="M7.71973 13.0104C7.71973 13.6548 7.20785 14.1771 6.5764 14.1771C5.94495 14.1771 5.43307 13.6548 5.43307 13.0104C5.43307 12.3661 5.94495 11.8438 6.5764 11.8438C7.20785 11.8438 7.71973 12.3661 7.71973 13.0104Z" fill="#C56708" />
</svg>