<svg width="204" height="141" viewBox="0 0 204 141" fill="none" xmlns="http://www.w3.org/2000/svg">
<g clip-path="url(#clip0_9518_42170)">
<path d="M33.8468 134.121H142.594C147.214 134.121 150.66 129.866 149.697 125.343L133.468 49.1273C132.752 45.7738 129.791 43.375 126.365 43.375H17.6174C12.9978 43.375 9.55127 47.6306 10.514 52.1531L26.7434 128.369C27.4594 131.722 30.4205 134.121 33.8468 134.121Z" fill="#E4E4E4" stroke="#2E2E2E" stroke-width="0.606781" stroke-miterlimit="10"/>
<path d="M38.421 134.121H147.168C151.788 134.121 155.234 129.866 154.272 125.343L138.042 49.1273C137.326 45.7738 134.365 43.375 130.939 43.375H22.1916C17.572 43.375 14.1255 47.6306 15.0883 52.1531L31.3176 128.369C32.0336 131.722 34.9947 134.121 38.421 134.121Z" fill="white" stroke="#2E2E2E" stroke-width="0.606781" stroke-miterlimit="10"/>
<path d="M147.169 130.075C148.503 130.075 149.308 129.327 149.673 128.882C150.033 128.437 150.599 127.495 150.32 126.188L134.09 49.9723C133.775 48.4958 132.452 47.4238 130.943 47.4238H22.2C20.8651 47.4238 20.06 48.1722 19.696 48.6172C19.336 49.0621 18.7696 50.0047 19.0488 51.3113L35.2781 127.527C35.5936 129.004 36.9164 130.075 38.4253 130.075H147.169Z" fill="#E4E4E4"/>
<path d="M147.169 130.075C148.503 130.075 149.308 129.327 149.673 128.882C150.033 128.437 150.599 127.495 150.32 126.188L134.09 49.9723C133.775 48.4958 132.452 47.4238 130.943 47.4238H22.2C20.8651 47.4238 20.06 48.1722 19.696 48.6172C19.336 49.0621 18.7696 50.0047 19.0488 51.3113L35.2781 127.527C35.5936 129.004 36.9164 130.075 38.4253 130.075H147.169Z" fill="#E4E4E4" stroke="#2E2E2E" stroke-width="0.606781" stroke-miterlimit="10"/>
<path d="M34.1535 57.9844H128.192C130.46 57.9844 132.298 59.8226 132.298 62.0903C132.298 64.3579 130.46 66.1961 128.192 66.1961H34.1535C31.8859 66.1961 30.0477 64.3579 30.0477 62.0903C30.0477 59.8226 31.8859 57.9844 34.1535 57.9844Z" fill="white"/>
<path d="M37.5471 73.916H131.586C133.854 73.916 135.692 75.7543 135.692 78.0219C135.692 80.2895 133.854 82.1278 131.586 82.1278H37.5471C35.2795 82.1278 33.4412 80.2895 33.4412 78.0219C33.4412 75.7543 35.2795 73.916 37.5471 73.916Z" fill="white"/>
<path d="M40.9372 89.8555H134.976C137.244 89.8555 139.082 91.6937 139.082 93.9614C139.082 96.229 137.244 98.0672 134.976 98.0672H40.9372C38.6696 98.0672 36.8314 96.229 36.8314 93.9614C36.8314 91.6937 38.6696 89.8555 40.9372 89.8555Z" fill="white"/>
<path d="M80.6488 121.532C80.6488 121.532 58.5741 122.354 47.7815 119.17C38.1458 116.33 33.0165 107.111 33.4291 97.9367C33.8458 88.7622 32.2884 80.7162 26.1316 78.9889C19.9748 77.2616 16.4271 82.3788 16.4271 82.3788C16.4271 82.3788 1.78751 100.429 26.1316 123.818C32.4866 129.926 44.2541 133.259 58.4568 133.984L71.4743 133.967C75.9887 129.914 79.1157 125.764 81.1707 121.65L80.6488 121.536V121.532Z" fill="#6D4AFF"/>
<mask id="mask0_9518_42170" style="mask-type:luminance" maskUnits="userSpaceOnUse" x="12" y="78" width="70" height="56">
<path d="M80.6461 121.532C80.6461 121.532 58.5714 122.354 47.7788 119.17C38.1431 116.33 33.0138 107.111 33.4264 97.9367C33.8431 88.7622 32.2857 80.7162 26.1289 78.9889C19.9721 77.2616 16.4244 82.3788 16.4244 82.3788C16.4244 82.3788 1.78483 100.429 26.1289 123.818C32.4839 129.926 44.2514 133.259 58.4541 133.984L71.4716 133.967C75.9861 129.914 79.113 125.764 81.168 121.65L80.6461 121.536V121.532Z" fill="white"/>
</mask>
<g mask="url(#mask0_9518_42170)">
<path d="M46.065 58.1758C31.2029 58.1758 23.064 48.3945 23.064 48.3945C23.064 48.3945 14.925 58.1758 0.0629425 58.1758C0.0629425 58.1758 -2.41272 87.1395 23.064 102.71C48.5448 87.1395 46.065 58.1758 46.065 58.1758Z" fill="#4129A3"/>
</g>
<path d="M47.7806 119.174C38.1449 116.334 33.0156 107.115 33.4282 97.9406C33.8449 88.7661 32.2875 80.7202 26.1307 78.9929C19.9739 77.2655 16.4262 82.3827 16.4262 82.3827C16.4262 82.3827 1.78662 100.432 26.1307 123.822C32.4857 129.93 44.2532 133.263 58.4559 133.987L71.4734 133.971" stroke="white" stroke-width="1.41582" stroke-miterlimit="10"/>
<path d="M68.7927 121.562C61.8067 121.085 54.6952 120.563 47.9801 118.496L47.5797 119.855C54.5253 121.502 61.7015 121.554 68.7927 121.562Z" fill="white"/>
<path d="M133.269 133.984C128.884 124.275 126.53 110.699 131.372 94.8462L182.682 92.2168C182.682 92.2168 197.305 110.934 183.45 133.984H133.269Z" fill="#6D4AFF"/>
<path d="M133.14 69.3818C133.14 69.3818 129.038 69.4101 124.268 65.4296C119.499 61.4491 84.678 43.9576 63.9827 75.6761C63.9827 75.6761 51.5477 81.3111 47.5187 101.274C45.5244 111.165 47.5956 130.072 60.164 133.968L169.66 134.121" fill="#6D4AFF"/>
<path d="M136.518 89.6924C136.518 89.6924 143.54 101.525 156.521 101.525H170.801C170.801 101.525 181.97 99.9753 186.375 90.647C190.78 81.3188 136.518 89.6924 136.518 89.6924Z" fill="#4129A3"/>
<path d="M150.474 41.0259L141.7 35.3909C138.658 33.4371 134.621 35.3222 134.159 38.9062L132.036 55.443L150.478 41.0259H150.474Z" fill="#6D4AFF"/>
<path d="M174.291 41.0259L183.065 35.3909C186.107 33.4371 190.145 35.3222 190.606 38.9062L192.729 55.443L174.287 41.0259H174.291Z" fill="#6D4AFF"/>
<path d="M185.49 42.0362L181.23 44.7748L188.176 49.443L187.334 42.8938C187.221 42.016 186.234 41.5589 185.494 42.0362H185.49Z" fill="#4A2DC5"/>
<path d="M139.936 42.0362L144.195 44.7748L137.25 49.443L138.091 42.8938C138.204 42.016 139.191 41.5589 139.932 42.0362H139.936Z" fill="#4A2DC5"/>
<path d="M125.979 72.7731C125.979 89.6497 146.007 95.665 162.714 95.665C177.398 95.665 199.448 89.6497 199.448 72.7731C199.448 55.8965 182.997 38.8379 162.71 38.8379C142.423 38.8379 125.975 55.8965 125.975 72.7731H125.979Z" fill="#6D4AFF"/>
<path d="M139.05 34.6053C136.7 34.6053 134.491 36.3083 134.156 38.9053L132.113 54.8151C129.415 58.5974 127.497 62.7923 126.587 67.1045C125.843 66.6433 125.07 66.0932 124.273 65.4297C121.664 63.2534 110.07 57.0359 96.7092 57.0359C85.6415 57.0359 73.3643 61.3077 63.9875 75.6763C63.9875 75.6763 51.5525 81.3112 47.5235 101.274C45.5292 111.165 47.6003 130.072 60.1688 133.968L169.664 134.121L169.588 133.984H183.451C194.583 115.461 187.33 99.7371 184.049 94.2761C184.931 93.2203 185.728 92.0229 186.375 90.6516C193.826 87.0433 199.445 81.2951 199.445 72.7758C199.445 66.1053 196.873 59.4024 192.512 53.7391L190.606 38.9053C190.275 36.3083 188.062 34.6053 185.712 34.6053C184.818 34.6053 183.904 34.852 183.066 35.39L174.583 40.8349C170.858 39.5526 166.865 38.8366 162.711 38.8366C158.556 38.8366 154.256 39.6092 150.413 40.9886L141.696 35.3941C140.859 34.8561 139.944 34.6093 139.05 34.6093M139.05 33.1895C140.252 33.1895 141.433 33.5373 142.46 34.2008L150.599 39.4231C154.535 38.0922 158.605 37.4207 162.711 37.4207C166.817 37.4207 170.591 38.0437 174.389 39.2775L182.302 34.2008C183.329 33.5373 184.51 33.1895 185.712 33.1895C188.895 33.1895 191.602 35.568 192.01 38.7233L193.867 53.1809C198.377 59.1637 200.861 66.1053 200.861 72.7718C200.861 80.7773 196.221 87.3143 187.435 91.7074C186.958 92.6459 186.399 93.5439 185.756 94.3975C187.391 97.306 189.769 102.484 190.558 109.061C191.61 117.823 189.628 126.452 184.66 134.712L184.247 135.4H172.007L172.088 135.541H169.66L60.1647 135.388H59.9504L59.7481 135.323C53.6965 133.45 49.2953 128.24 47.0219 120.263C44.9588 113.034 45.2137 105.574 46.136 100.999C47.3212 95.1297 50.0315 86.7278 56.2288 80.0329C59.2869 76.728 62.0215 75.1099 63.0166 74.5881C67.4583 67.8811 72.8586 62.8772 79.0761 59.7098C84.3996 56.9995 90.3339 55.6242 96.7132 55.6242C104.16 55.6242 110.778 57.5133 115.022 59.095C119.852 60.8991 123.606 63.0309 125.183 64.3456C125.357 64.4913 125.535 64.6328 125.713 64.7704C126.745 61.1499 128.468 57.5659 130.758 54.2893L132.756 38.7273C133.156 35.568 135.867 33.1895 139.05 33.1895Z" fill="white"/>
<path d="M144.704 78.2738C138.63 75.654 135.591 69.1599 137.916 63.7687C140.241 58.3775 147.05 56.1308 153.125 58.7506C159.199 61.3704 162.238 67.8646 159.913 73.2558C157.588 78.647 150.779 80.8936 144.704 78.2738Z" fill="white"/>
<path d="M172.063 73.2548C169.737 67.8636 172.777 61.3694 178.851 58.7496C184.925 56.1298 191.735 58.3765 194.06 63.7677C196.385 69.1589 193.346 75.6531 187.271 78.2728C181.197 80.8926 174.388 78.646 172.063 73.2548Z" fill="white"/>
<path d="M151.978 73.2652C149.764 73.2652 147.969 70.3403 147.969 66.7322C147.969 63.1241 149.764 60.1992 151.978 60.1992C154.192 60.1992 155.987 63.1241 155.987 66.7322C155.987 70.3403 154.192 73.2652 151.978 73.2652Z" fill="#4129A3"/>
<path d="M171.702 66.558C175.04 58.4474 187.248 55.3487 192.737 62.8162C194.449 65.1867 194.865 68.253 194.202 71.1291C196.536 66.7522 194.772 61.1293 190.569 58.5728C183.704 54.0866 173.066 58.415 171.702 66.5621V66.558Z" fill="#372480"/>
<path d="M160.271 66.5583C158.908 58.4113 148.269 54.087 141.404 58.5691C137.201 61.1256 135.437 66.7525 137.771 71.1254C137.104 68.2533 137.525 65.183 139.236 62.8125C144.725 55.345 156.933 58.4437 160.271 66.5543V66.5583Z" fill="#372480"/>
<path d="M169.663 78.0234C168.32 78.0234 167.236 79.1116 167.236 80.4506" stroke="white" stroke-width="1.0113" stroke-miterlimit="10" stroke-linecap="round"/>
<path d="M164.806 78.0234C166.149 78.0234 167.233 79.1116 167.233 80.4506" stroke="white" stroke-width="1.0113" stroke-miterlimit="10" stroke-linecap="round"/>
<path opacity="0.7" d="M149.533 63.977C148.697 63.977 148.02 63.2996 148.02 62.4641C148.02 61.6285 148.697 60.9512 149.533 60.9512C150.368 60.9512 151.045 61.6285 151.045 62.4641C151.045 63.2996 150.368 63.977 149.533 63.977Z" fill="white"/>
<path d="M185.732 73.2652C183.518 73.2652 181.723 70.3403 181.723 66.7322C181.723 63.1241 183.518 60.1992 185.732 60.1992C187.946 60.1992 189.74 63.1241 189.74 66.7322C189.74 70.3403 187.946 73.2652 185.732 73.2652Z" fill="#4129A3"/>
<path opacity="0.7" d="M183.288 63.977C182.452 63.977 181.775 63.2996 181.775 62.4641C181.775 61.6285 182.452 60.9512 183.288 60.9512C184.123 60.9512 184.801 61.6285 184.801 62.4641C184.801 63.2996 184.123 63.977 183.288 63.977Z" fill="white"/>
<path d="M161.484 111.505C157.11 111.505 153.564 107.959 153.564 103.585C153.564 99.2102 157.11 95.6641 161.484 95.6641C165.858 95.6641 169.405 99.2102 169.405 103.585C169.405 107.959 165.858 111.505 161.484 111.505Z" fill="#FC8F00"/>
<path d="M164.437 111.506H161.403V95.6689H164.437V111.506Z" fill="#FC8F00"/>
<path d="M164.437 111.505C160.063 111.505 156.517 107.959 156.517 103.585C156.517 99.2102 160.063 95.6641 164.437 95.6641C168.812 95.6641 172.358 99.2102 172.358 103.585C172.358 107.959 168.812 111.505 164.437 111.505Z" fill="#FFAC2E"/>
<path d="M164.437 104.888C163.077 104.888 161.974 103.785 161.974 102.424C161.974 101.064 163.077 99.9609 164.437 99.9609C165.798 99.9609 166.901 101.064 166.901 102.424C166.901 103.785 165.798 104.888 164.437 104.888Z" fill="#372580"/>
<path d="M164.436 106.279V102.424" stroke="#372580" stroke-width="2.28959" stroke-miterlimit="10" stroke-linecap="round"/>
<path d="M161.484 111.505C157.109 111.505 153.563 107.959 153.563 103.585C153.563 99.2102 157.109 95.6641 161.484 95.6641C165.858 95.6641 169.404 99.2102 169.404 103.585C169.404 107.959 165.858 111.505 161.484 111.505Z" fill="#FC8F00"/>
<path d="M164.437 111.506H161.403V95.6689H164.437V111.506Z" fill="#FC8F00"/>
<path d="M164.437 111.505C160.063 111.505 156.517 107.959 156.517 103.585C156.517 99.2102 160.063 95.6641 164.437 95.6641C168.812 95.6641 172.358 99.2102 172.358 103.585C172.358 107.959 168.812 111.505 164.437 111.505Z" fill="#FFAC2E"/>
<path d="M164.437 104.888C163.077 104.888 161.974 103.785 161.974 102.424C161.974 101.064 163.077 99.9609 164.437 99.9609C165.798 99.9609 166.901 101.064 166.901 102.424C166.901 103.785 165.798 104.888 164.437 104.888Z" fill="#372580"/>
<path d="M164.436 106.279V102.424" stroke="#372580" stroke-width="2.28959" stroke-miterlimit="10" stroke-linecap="round"/>
<path d="M169.664 78.0234C168.321 78.0234 167.237 79.1116 167.237 80.4506" stroke="white" stroke-width="1.0113" stroke-miterlimit="10" stroke-linecap="round"/>
<path d="M164.806 78.0234C166.149 78.0234 167.233 79.1116 167.233 80.4506" stroke="white" stroke-width="1.0113" stroke-miterlimit="10" stroke-linecap="round"/>
<path d="M125.382 65.9746C125.163 70.0481 125.665 74.0933 126.696 78.0212C126.413 76.0431 126.272 74.0488 126.288 72.0505C126.304 70.0967 126.442 68.0741 126.785 66.1728L125.382 65.9746Z" fill="white"/>
<path d="M61.8595 76.8133C62.8344 76.247 64.1005 76.0649 65.221 76.0609C67.4945 76.069 69.7921 76.8578 71.8269 77.8448C74.6787 79.2849 77.2879 81.3035 79.6746 83.4191L77.8259 81.6069C75.2855 79.2647 72.4215 77.0884 69.1773 75.8263C66.6369 74.8757 63.6313 74.37 61.0949 75.62L61.8595 76.8093V76.8133Z" fill="white"/>
<path d="M196.941 140.213H39.6065C36.4269 140.213 33.8461 137.632 33.8461 134.453V134.117H187.839H203.037C203.037 137.483 200.306 140.213 196.941 140.213Z" fill="white" stroke="#2E2E2E" stroke-width="0.574419" stroke-miterlimit="10"/>
</g>
<path fill-rule="evenodd" clip-rule="evenodd" d="M29.7606 4.55893C30.2137 4.55893 30.6118 4.85927 30.7363 5.2949L31.8365 9.14573C32.3181 10.8312 33.6356 12.1488 35.3211 12.6303L39.172 13.7306C39.6076 13.855 39.9079 14.2532 39.9079 14.7063C39.9079 15.1593 39.6076 15.5575 39.172 15.6819L35.3211 16.7822C33.6356 17.2638 32.3181 18.5813 31.8365 20.2668L30.7363 24.1176C30.6118 24.5533 30.2137 24.8536 29.7606 24.8536C29.3076 24.8536 28.9094 24.5533 28.7849 24.1176L27.6847 20.2668C27.2031 18.5813 25.8856 17.2638 24.2001 16.7822L20.3492 15.6819C19.9136 15.5575 19.6133 15.1593 19.6133 14.7063C19.6133 14.2532 19.9136 13.855 20.3492 13.7306L24.2001 12.6303C25.8856 12.1488 27.2031 10.8312 27.6847 9.14572L28.7849 5.2949C28.9094 4.85927 29.3076 4.55893 29.7606 4.55893Z" fill="#FFB43B"/>
<path fill-rule="evenodd" clip-rule="evenodd" d="M41.9374 0.5C42.403 0.5 42.8089 0.816898 42.9218 1.26862L43.2721 2.66958C43.5902 3.94205 44.5837 4.9356 45.8562 5.25372L47.2572 5.60396C47.7089 5.71689 48.0258 6.12277 48.0258 6.5884C48.0258 7.05403 47.7089 7.4599 47.2572 7.57283L45.8562 7.92307C44.5837 8.24119 43.5902 9.23474 43.2721 10.5072L42.9218 11.9082C42.8089 12.3599 42.403 12.6768 41.9374 12.6768C41.4718 12.6768 41.0659 12.3599 40.953 11.9082L40.6027 10.5072C40.2846 9.23474 39.2911 8.24119 38.0186 7.92307L36.6176 7.57283C36.1659 7.4599 35.849 7.05403 35.849 6.5884C35.849 6.12277 36.1659 5.71689 36.6176 5.60396L38.0186 5.25372C39.2911 4.9356 40.2846 3.94205 40.6027 2.66958L40.953 1.26862C41.0659 0.816898 41.4718 0.5 41.9374 0.5Z" fill="#FFB43B"/>
<path fill-rule="evenodd" clip-rule="evenodd" d="M39.9079 18.7652C40.3447 18.7652 40.7325 19.0447 40.8706 19.459L41.404 21.0592C41.606 21.6653 42.0815 22.1408 42.6875 22.3428L44.2878 22.8762C44.7021 23.0143 44.9816 23.4021 44.9816 23.8389C44.9816 24.2756 44.7021 24.6634 44.2878 24.8015L42.6875 25.3349C42.0815 25.5369 41.606 26.0125 41.404 26.6185L40.8706 28.2187C40.7325 28.633 40.3447 28.9125 39.9079 28.9125C39.4712 28.9125 39.0834 28.633 38.9453 28.2187L38.4119 26.6185C38.2099 26.0125 37.7343 25.5369 37.1283 25.3349L35.5281 24.8015C35.1138 24.6634 34.8343 24.2756 34.8343 23.8389C34.8343 23.4021 35.1138 23.0143 35.5281 22.8762L37.1283 22.3428C37.7343 22.1408 38.2099 21.6653 38.4119 21.0592L38.9453 19.459C39.0834 19.0447 39.4712 18.7652 39.9079 18.7652Z" fill="#FFB43B"/>
<defs>
<clipPath id="clip0_9518_42170">
<rect width="203.324" height="107.311" fill="white" transform="matrix(-1 0 0 1 203.324 33.1895)"/>
</clipPath>
</defs>
</svg>
