<svg width="20" height="20" viewBox="0 0 20 20" fill="none" xmlns="http://www.w3.org/2000/svg">
<path d="M9.7832 2.44629C11.5768 0.717721 14.474 0.717721 16.2676 2.44629C18.0772 4.19051 18.0771 7.03111 16.2676 8.77539L10.125 14.6953C9.00996 15.7699 7.21376 15.7698 6.09863 14.6953C4.9672 13.6049 4.9672 11.8248 6.09863 10.7344L11.5039 5.52441C11.813 5.22687 12.3049 5.23584 12.6025 5.54492C12.9002 5.85411 12.891 6.34665 12.582 6.64453L7.17676 11.8535C6.67988 12.3324 6.67988 13.0963 7.17676 13.5752C7.68997 14.0698 8.53367 14.0698 9.04688 13.5752L15.1885 7.65625C16.3638 6.5235 16.3638 4.69915 15.1885 3.56641C13.9968 2.41809 12.0539 2.41807 10.8623 3.56641L4.71973 9.48633C2.86601 11.273 2.86594 14.1568 4.71973 15.9434C6.58988 17.7456 9.63379 17.7457 11.5039 15.9434L16.9092 10.7344C17.2183 10.4365 17.7101 10.4456 18.0078 10.7549C18.3052 11.064 18.296 11.5557 17.9873 11.8535L12.582 17.0635C10.1101 19.4458 6.11367 19.4456 3.6416 17.0635C1.15323 14.6653 1.15323 10.7644 3.6416 8.36621L9.7832 2.44629Z" fill="#0C0C14" stroke="#0C0C14" stroke-width="0.2"/>
</svg>
