<?xml version='1.0' encoding='utf-8'?>
<svg xmlns="http://www.w3.org/2000/svg" viewBox="0 0 24 24" fill="none">
  <path d="M0 2.5C0 1.11929 1.11929 0 2.5 0H21.5C22.8807 0 24 1.11929 24 2.5V21.5C24 22.8807 22.8807 24 21.5 24H2.5C1.11929 24 0 22.8807 0 21.5V2.5Z" fill="#DADBE0" />
  <path d="M16 0H21.5C22.8807 0 24 1.11929 24 2.5V8H19C17.3431 8 16 6.65685 16 5V0Z" fill="#EBECF0" />
  <path d="M24 8H18.6667C17.1939 8 16 6.80609 16 5.33333V0H16.8954C17.0431 0 17 0 17.3333 1.13333e-05V5.33333C17.3333 6.06971 17.9303 6.66667 18.6667 6.66667H24C24 7 24 6.95689 24 7.10457V8Z" fill="#BABBC5" />
</svg>