<svg width="20" height="20" viewBox="0 0 20 20" fill="none" xmlns="http://www.w3.org/2000/svg">
<path d="M10 1.15039C10.5712 1.15039 11.1297 1.20516 11.6709 1.30859C11.6761 1.3074 11.6811 1.30504 11.6865 1.30469C11.7091 1.30322 11.7306 1.31053 11.749 1.32324C15.799 2.13519 18.8496 5.71099 18.8496 10C18.8496 14.2893 15.7985 17.8652 11.748 18.6768C11.7297 18.6893 11.7089 18.6967 11.6865 18.6953C11.6811 18.695 11.6761 18.6917 11.6709 18.6904C11.1296 18.7939 10.5713 18.8496 10 18.8496C9.43468 18.8496 8.88171 18.7967 8.3457 18.6953L8.30664 18.6904C8.30377 18.6895 8.3016 18.6868 8.29883 18.6855C4.22512 17.8922 1.15039 14.3058 1.15039 10C1.15039 5.69443 4.22452 2.10709 8.29785 1.31348C8.31271 1.30676 8.32914 1.30261 8.3457 1.30371H8.34766C8.88302 1.2026 9.43541 1.15039 10 1.15039ZM10.7129 10.7236V17.3643C10.8395 17.3522 10.9652 17.3377 11.0898 17.3193C13.0411 15.4856 14.1015 13.1249 14.2773 10.7168L10.7129 10.7236ZM5.75391 10.7324C5.93347 13.1374 6.99745 15.4938 8.94824 17.3242C9.05237 17.339 9.15721 17.3509 9.2627 17.3613V10.7266L5.75391 10.7324ZM2.6377 10.7383C2.87551 13.1391 4.26017 15.202 6.2373 16.3721C5.07442 14.6537 4.42956 12.7077 4.30078 10.7363L2.6377 10.7383ZM15.7314 10.7139C15.607 12.6806 14.9699 14.6228 13.8164 16.3398C15.7723 15.1599 17.1374 13.1016 17.3652 10.7109L15.7314 10.7139ZM6.23535 3.62793C4.25145 4.80258 2.86367 6.87709 2.63379 9.28906L4.29883 9.28613C4.42391 7.30728 5.0685 5.35272 6.23535 3.62793ZM8.94727 2.6748C6.99251 4.50905 5.92895 6.87194 5.75293 9.28223L9.2627 9.27637V2.6377C9.1569 2.64816 9.0517 2.65993 8.94727 2.6748ZM10.7129 9.27344L14.2764 9.2666C14.0969 6.86403 13.037 4.50912 11.0898 2.67969C10.9652 2.66129 10.8395 2.64589 10.7129 2.63379V9.27344ZM13.8164 3.65918C14.9658 5.3698 15.6026 7.30432 15.7305 9.26367L17.3623 9.26074C17.1264 6.88197 15.7648 4.83444 13.8164 3.65918Z" fill="#0C0C14" stroke="#0C0C14" stroke-width="0.2" stroke-linecap="round" stroke-linejoin="round"/>
</svg>
