<svg width="16" height="16" viewBox="0 0 16 16" fill="none" xmlns="http://www.w3.org/2000/svg">
<path d="M11.0762 4.07617C11.3105 3.84186 11.6895 3.84186 11.9238 4.07617C12.1581 4.31049 12.1581 4.68951 11.9238 4.92383L8.84766 8L11.9238 11.0762C12.1581 11.3105 12.1581 11.6895 11.9238 11.9238C11.6895 12.1581 11.3105 12.1581 11.0762 11.9238L8 8.84766L4.92383 11.9238C4.68951 12.1581 4.31049 12.1581 4.07617 11.9238C3.84186 11.6895 3.84186 11.3105 4.07617 11.0762L7.15234 8L4.07617 4.92383C3.84186 4.68951 3.84186 4.31049 4.07617 4.07617C4.31049 3.84186 4.68951 3.84186 4.92383 4.07617L8 7.15234L11.0762 4.07617Z" fill="#6D4AFF" stroke="#6D4AFF" stroke-width="0.2" stroke-linecap="round" stroke-linejoin="round"/>
</svg>
