<svg width="24" height="24" viewBox="0 0 24 24" fill="none" xmlns="http://www.w3.org/2000/svg">
<path d="M6 12C6 13.6569 4.99264 15 3.75 15C2.50736 15 1.5 13.6569 1.5 12C1.5 10.3431 2.50736 9 3.75 9C4.99264 9 6 10.3431 6 12Z" fill="url(#paint0_radial_7257_41682)"/>
<path d="M22.5 12C22.5 13.6569 21.4926 15 20.25 15C19.0074 15 18 13.6569 18 12C18 10.3431 19.0074 9 20.25 9C21.4926 9 22.5 10.3431 22.5 12Z" fill="url(#paint1_radial_7257_41682)"/>
<path d="M10.5 6C10.5 7.65685 9.49264 9 8.25 9C7.00736 9 6 7.65685 6 6C6 4.34315 7.00736 3 8.25 3C9.49264 3 10.5 4.34315 10.5 6Z" fill="url(#paint2_radial_7257_41682)"/>
<path d="M18 6C18 7.65685 16.9926 9 15.75 9C14.5074 9 13.5 7.65685 13.5 6C13.5 4.34315 14.5074 3 15.75 3C16.9926 3 18 4.34315 18 6Z" fill="url(#paint3_radial_7257_41682)"/>
<path d="M15.8569 14.1274C15.6513 14.0379 15.5034 13.8447 15.4751 13.6223C15.272 12.0295 13.8499 10 12 10C10.1484 10 8.67935 12.0333 8.4716 13.6267C8.44288 13.847 8.29778 14.0389 8.09519 14.13C6.85383 14.6882 5.93848 16.1732 5.93848 17.5921C5.93848 19.4742 7.46424 21 9.34637 21C9.87959 21 10.7241 20.7716 11.366 20.4934C11.7613 20.322 12.2386 20.322 12.6339 20.4935C13.2752 20.7717 14.1186 21 14.6518 21C16.5339 21 18.0597 19.4742 18.0597 17.5921C18.0597 16.1612 17.1171 14.6764 15.8569 14.1274Z" fill="url(#paint4_radial_7257_41682)"/>
<defs>
<radialGradient id="paint0_radial_7257_41682" cx="0" cy="0" r="1" gradientUnits="userSpaceOnUse" gradientTransform="translate(22.4085 5.20338) scale(24.4896 26.1723)">
<stop offset="0.5561" stop-color="#6D4AFF"/>
<stop offset="0.9944" stop-color="#AA8EFF"/>
</radialGradient>
<radialGradient id="paint1_radial_7257_41682" cx="0" cy="0" r="1" gradientUnits="userSpaceOnUse" gradientTransform="translate(22.4085 5.20338) scale(24.4896 26.1723)">
<stop offset="0.5561" stop-color="#6D4AFF"/>
<stop offset="0.9944" stop-color="#AA8EFF"/>
</radialGradient>
<radialGradient id="paint2_radial_7257_41682" cx="0" cy="0" r="1" gradientUnits="userSpaceOnUse" gradientTransform="translate(22.4085 5.20338) scale(24.4896 26.1723)">
<stop offset="0.5561" stop-color="#6D4AFF"/>
<stop offset="0.9944" stop-color="#AA8EFF"/>
</radialGradient>
<radialGradient id="paint3_radial_7257_41682" cx="0" cy="0" r="1" gradientUnits="userSpaceOnUse" gradientTransform="translate(22.4085 5.20338) scale(24.4896 26.1723)">
<stop offset="0.5561" stop-color="#6D4AFF"/>
<stop offset="0.9944" stop-color="#AA8EFF"/>
</radialGradient>
<radialGradient id="paint4_radial_7257_41682" cx="0" cy="0" r="1" gradientUnits="userSpaceOnUse" gradientTransform="translate(22.4085 5.20338) scale(24.4896 26.1723)">
<stop offset="0.5561" stop-color="#6D4AFF"/>
<stop offset="0.9944" stop-color="#AA8EFF"/>
</radialGradient>
</defs>
</svg>
