<svg width="50" height="12" viewBox="0 0 50 12" fill="none" xmlns="http://www.w3.org/2000/svg">
<path d="M6.33105 7.91992C6.33108 8.42374 6.41314 8.82087 6.57617 9.11035C6.75013 9.38899 6.9896 9.58709 7.29395 9.70508C7.59846 9.82308 7.9521 9.88184 8.35449 9.88184C8.93077 9.88182 9.41994 9.75339 9.82227 9.49609C10.2246 9.23871 10.5459 8.92223 10.7852 8.54688C10.9582 8.27981 11.087 8.01927 11.1768 7.76758V3.23828H12.9873V11.25H11.1768V8.4502C11.166 8.49117 11.1557 8.53457 11.1436 8.5791C11.0784 8.85787 10.9648 9.16383 10.8018 9.49609C10.6495 9.81781 10.4426 10.1295 10.1816 10.4297C9.93156 10.7191 9.61582 10.9603 9.23535 11.1533C8.85468 11.3357 8.39237 11.4268 7.84863 11.4268C7.45724 11.4268 7.06046 11.3728 6.6582 11.2656C6.26671 11.1691 5.90731 11.0025 5.58105 10.7666C5.26583 10.5307 5.01014 10.2091 4.81445 9.80176C4.6188 9.39433 4.52054 8.87952 4.52051 8.25781V3.23828H6.33105V7.91992ZM34.9551 3.05859C35.8576 3.05859 36.6623 3.22529 37.3691 3.55762C38.0758 3.88997 38.6308 4.37244 39.0332 5.00488C39.4464 5.62681 39.6533 6.37848 39.6533 7.25781C39.6533 8.14764 39.4463 8.90347 39.0332 9.52539C38.6308 10.1473 38.076 10.6197 37.3691 10.9414C36.6623 11.263 35.8576 11.4238 34.9551 11.4238C34.0525 11.4238 33.2422 11.2632 32.5244 10.9414C31.8067 10.6197 31.2414 10.1473 30.8281 9.52539C30.4151 8.90348 30.2081 8.14763 30.208 7.25781C30.208 6.37848 30.415 5.62681 30.8281 5.00488C31.2414 4.37245 31.8069 3.88998 32.5244 3.55762C33.2422 3.2252 34.0525 3.0586 34.9551 3.05859ZM1.81055 7.75391C1.81055 8.25784 1.89261 8.65481 2.05566 8.94434C2.13461 9.07083 2.22719 9.18104 2.33301 9.27441C2.58847 9.49979 2.94924 9.54003 3.29199 9.54004H3.5332V11.2607C3.14168 11.2607 2.53905 11.2068 2.13672 11.0996C1.74547 11.0031 1.38662 10.8373 1.06055 10.6016C0.74521 10.3657 0.48968 10.0432 0.293945 9.63574C0.0983118 9.22826 0 8.71365 0 8.0918V0H1.81055V7.75391ZM26.0488 3.05859C26.5273 3.05859 26.963 3.12328 27.3545 3.25195C27.7456 3.38056 28.0827 3.57889 28.3652 3.84668C28.6588 4.10402 28.8876 4.42652 29.0508 4.8125C29.2139 5.19847 29.2959 5.65444 29.2959 6.17969V11.2471H27.4688V6.5332C27.4687 5.87952 27.3055 5.39687 26.9795 5.08594C26.6642 4.76434 26.1635 4.60356 25.4785 4.60352C24.9567 4.60352 24.4779 4.71541 24.043 4.94043C23.6189 5.15488 23.2708 5.44012 22.999 5.79395C22.9239 5.89267 22.8579 5.99467 22.8008 6.09961C22.8012 6.12599 22.8027 6.15294 22.8027 6.17969V11.2471H20.9922V6.5332C20.9921 5.87945 20.8289 5.39687 20.5029 5.08594C20.1875 4.76432 19.687 4.60354 19.002 4.60352C18.4801 4.60352 18.0013 4.71536 17.5664 4.94043C17.1423 5.15488 16.7944 5.44012 16.5225 5.79395C16.3525 6.00842 16.2272 6.23764 16.1465 6.48145V11.2471H14.3359V3.23535H16.1465V5.54883C16.2088 5.33988 16.2893 5.13624 16.3916 4.94043C16.5764 4.57603 16.8216 4.25428 17.126 3.97559C17.4304 3.6862 17.7891 3.46061 18.2021 3.2998C18.6154 3.13896 19.073 3.05859 19.5732 3.05859C20.0406 3.05864 20.4699 3.12336 20.8613 3.25195C21.2637 3.38062 21.6069 3.57864 21.8896 3.84668C22.1832 4.10402 22.4063 4.42653 22.5586 4.8125C22.622 4.9626 22.6722 5.12376 22.7109 5.29492C22.7614 5.17011 22.8178 5.04585 22.8848 4.9248C23.0804 4.5604 23.3304 4.23866 23.6348 3.95996C23.9393 3.68118 24.293 3.46065 24.6953 3.2998C25.1084 3.13906 25.5596 3.05864 26.0488 3.05859ZM46.6865 6.03613H50L49.6582 7.75684H46.3447L45.6025 11.207H43.9492L44.6924 7.75684H41.3789L41.7217 6.03613H45.0342L45.7773 2.58594H47.4297L46.6865 6.03613ZM34.9551 4.50684C34.4223 4.50685 33.9379 4.61368 33.5029 4.82812C33.068 5.04258 32.7151 5.35433 32.4434 5.76172C32.1824 6.16918 32.0518 6.66814 32.0518 7.25781C32.0518 7.83663 32.1825 8.3299 32.4434 8.7373C32.7044 9.14473 33.0524 9.45055 33.4873 9.6543C33.9331 9.85797 34.4224 9.95995 34.9551 9.95996C35.4771 9.95996 35.9557 9.85803 36.3906 9.6543C36.8256 9.45053 37.1688 9.14481 37.4189 8.7373C37.6797 8.32994 37.8095 7.83653 37.8096 7.25781C37.8095 6.67884 37.6799 6.18479 37.4189 5.77734C37.1688 5.36995 36.8256 5.05919 36.3906 4.84473C35.9665 4.61955 35.488 4.50684 34.9551 4.50684Z" fill="#6D4AFF"/>
</svg>
