<svg width="160" height="161" viewBox="0 0 160 161" fill="none" xmlns="http://www.w3.org/2000/svg">
<path d="M73.0002 85.9482C58.3896 87.707 45.3367 94.5431 35.67 104.629C33.3748 107.023 33.4555 110.825 35.85 113.12C38.2446 115.415 42.0463 115.335 44.3414 112.94C51.8276 105.13 61.8059 99.7465 73.0002 98.0681V85.9482Z" fill="url(#paint0_linear_12027_26009)" fill-opacity="0.3"/>
<path d="M88.6993 98.1805C99.6028 99.9772 109.316 105.296 116.642 112.939C118.937 115.333 122.739 115.414 125.134 113.119C127.528 110.823 127.609 107.022 125.313 104.627C116.803 95.7482 105.667 89.3879 93.155 86.7937L88.6993 98.1805Z" fill="url(#paint1_linear_12027_26009)" fill-opacity="0.3"/>
<path d="M80.4925 124.966C73.652 124.966 67.4418 127.607 62.8046 131.937C60.3802 134.201 56.5799 134.07 54.3162 131.646C52.0526 129.222 52.1829 125.421 54.6072 123.158C61.3805 116.833 70.4902 112.954 80.4925 112.954C90.4909 112.954 99.5975 116.83 106.37 123.15C108.795 125.413 108.926 129.214 106.663 131.639C104.4 134.064 100.6 134.195 98.1751 131.932C93.5384 127.605 87.3304 124.966 80.4925 124.966Z" fill="url(#paint2_linear_12027_26009)" fill-opacity="0.3"/>
<path d="M91.3955 149.272C91.3955 155.294 86.514 160.175 80.4924 160.175C74.4708 160.175 69.5893 155.294 69.5893 149.272C69.5893 143.251 74.4708 138.369 80.4924 138.369C86.514 138.369 91.3955 143.251 91.3955 149.272Z" fill="url(#paint3_linear_12027_26009)" fill-opacity="0.3"/>
<path d="M49 63L79 0V40H106L79 106V63H49Z" fill="url(#paint4_linear_12027_26009)" fill-opacity="0.3"/>
<defs>
<linearGradient id="paint0_linear_12027_26009" x1="116" y1="86" x2="80.4918" y2="160.175" gradientUnits="userSpaceOnUse">
<stop stop-color="#DFDCD6"/>
<stop offset="1" stop-color="#A4A19D"/>
</linearGradient>
<linearGradient id="paint1_linear_12027_26009" x1="116" y1="86" x2="80.4918" y2="160.175" gradientUnits="userSpaceOnUse">
<stop stop-color="#DFDCD6"/>
<stop offset="1" stop-color="#A4A19D"/>
</linearGradient>
<linearGradient id="paint2_linear_12027_26009" x1="116" y1="86" x2="80.4918" y2="160.175" gradientUnits="userSpaceOnUse">
<stop stop-color="#DFDCD6"/>
<stop offset="1" stop-color="#A4A19D"/>
</linearGradient>
<linearGradient id="paint3_linear_12027_26009" x1="116" y1="86" x2="80.4918" y2="160.175" gradientUnits="userSpaceOnUse">
<stop stop-color="#DFDCD6"/>
<stop offset="1" stop-color="#A4A19D"/>
</linearGradient>
<linearGradient id="paint4_linear_12027_26009" x1="111" y1="-2" x2="77.5" y2="108" gradientUnits="userSpaceOnUse">
<stop stop-color="#DFDCD6"/>
<stop offset="1" stop-color="#A4A19D"/>
</linearGradient>
</defs>
</svg>
