<svg width="24" height="24" viewBox="0 0 24 24" fill="none" xmlns="http://www.w3.org/2000/svg">
<path d="M6 12C6 13.6569 4.99264 15 3.75 15C2.50736 15 1.5 13.6569 1.5 12C1.5 10.3431 2.50736 9 3.75 9C4.99264 9 6 10.3431 6 12Z" fill="url(#paint0_radial_7257_41664)" fill-opacity="0.2"/>
<path d="M22.5 12C22.5 13.6569 21.4926 15 20.25 15C19.0074 15 18 13.6569 18 12C18 10.3431 19.0074 9 20.25 9C21.4926 9 22.5 10.3431 22.5 12Z" fill="url(#paint1_radial_7257_41664)" fill-opacity="0.2"/>
<path d="M10.5 6C10.5 7.65685 9.49264 9 8.25 9C7.00736 9 6 7.65685 6 6C6 4.34315 7.00736 3 8.25 3C9.49264 3 10.5 4.34315 10.5 6Z" fill="url(#paint2_radial_7257_41664)" fill-opacity="0.2"/>
<path d="M18 6C18 7.65685 16.9926 9 15.75 9C14.5074 9 13.5 7.65685 13.5 6C13.5 4.34315 14.5074 3 15.75 3C16.9926 3 18 4.34315 18 6Z" fill="url(#paint3_radial_7257_41664)" fill-opacity="0.2"/>
<path d="M15.5 14C15.5 12.3722 14 10 12 10C10 10 8.4464 12.3722 8.4464 14C7.03041 14.4138 5.93848 16.0424 5.93848 17.5921C5.93848 19.4742 7.46424 21 9.34637 21C9.87959 21 10.7241 20.7716 11.366 20.4934C11.7613 20.322 12.2386 20.322 12.6339 20.4935C13.2752 20.7717 14.1186 21 14.6518 21C16.5339 21 18.0597 19.4742 18.0597 17.5921C18.0597 16.029 16.9349 14.4017 15.5 14Z" fill="url(#paint4_radial_7257_41664)" fill-opacity="0.2"/>
<path fill-rule="evenodd" clip-rule="evenodd" d="M15.2304 14.963C14.7986 14.8421 14.5 14.4485 14.5 14C14.5 13.452 14.2285 12.6635 13.7133 12.0069C13.2004 11.3532 12.5861 11 12 11C11.4098 11 10.7805 11.3575 10.2535 12.015C9.72412 12.6755 9.4464 13.4614 9.4464 14C9.4464 14.4443 9.15331 14.8353 8.72687 14.9599C8.28659 15.0885 7.83507 15.4296 7.4847 15.9377C7.13593 16.4436 6.93848 17.0432 6.93848 17.5921C6.93848 18.9219 8.01653 20 9.34637 20C9.68639 20 10.3871 19.8278 10.9682 19.5759C11.6174 19.2944 12.3828 19.2945 13.0319 19.5761C13.6125 19.828 14.312 20 14.6518 20C15.9816 20 17.0597 18.9219 17.0597 17.5921C17.0597 17.042 16.8576 16.4425 16.501 15.9372C16.1428 15.4298 15.6807 15.089 15.2304 14.963ZM4.54099 13.5213C4.80632 13.1675 5 12.633 5 12C5 11.367 4.80632 10.8325 4.54099 10.4787C4.27589 10.1252 3.98599 10 3.75 10C3.51401 10 3.22411 10.1252 2.95901 10.4787C2.69368 10.8325 2.5 11.367 2.5 12C2.5 12.633 2.69368 13.1675 2.95901 13.5213C3.22411 13.8748 3.51401 14 3.75 14C3.98599 14 4.27589 13.8748 4.54099 13.5213ZM8.4464 14C8.4464 12.3722 10 10 12 10C14 10 15.5 12.3722 15.5 14C16.9349 14.4017 18.0597 16.029 18.0597 17.5921C18.0597 19.4742 16.5339 21 14.6518 21C14.1186 21 13.2752 20.7717 12.6339 20.4935C12.2386 20.322 11.7613 20.322 11.366 20.4934C10.7241 20.7716 9.87959 21 9.34637 21C7.46424 21 5.93848 19.4742 5.93848 17.5921C5.93848 16.0424 7.03041 14.4138 8.4464 14ZM21.041 13.5213C21.3063 13.1675 21.5 12.633 21.5 12C21.5 11.367 21.3063 10.8325 21.041 10.4787C20.7759 10.1252 20.486 10 20.25 10C20.014 10 19.7241 10.1252 19.459 10.4787C19.1937 10.8325 19 11.367 19 12C19 12.633 19.1937 13.1675 19.459 13.5213C19.7241 13.8748 20.014 14 20.25 14C20.486 14 20.7759 13.8748 21.041 13.5213ZM9.04099 7.52132C9.30632 7.16755 9.5 6.63298 9.5 6C9.5 5.36702 9.30632 4.83246 9.04099 4.47868C8.77589 4.12521 8.48599 4 8.25 4C8.01401 4 7.72411 4.12521 7.45901 4.47868C7.19368 4.83246 7 5.36702 7 6C7 6.63298 7.19368 7.16755 7.45901 7.52132C7.72411 7.87479 8.01401 8 8.25 8C8.48599 8 8.77589 7.87479 9.04099 7.52132ZM16.541 7.52132C16.8063 7.16755 17 6.63298 17 6C17 5.36702 16.8063 4.83246 16.541 4.47868C16.2759 4.12521 15.986 4 15.75 4C15.514 4 15.2241 4.12521 14.959 4.47868C14.6937 4.83246 14.5 5.36702 14.5 6C14.5 6.63298 14.6937 7.16755 14.959 7.52132C15.2241 7.87479 15.514 8 15.75 8C15.986 8 16.2759 7.87479 16.541 7.52132ZM8.25 9C9.49264 9 10.5 7.65685 10.5 6C10.5 4.34315 9.49264 3 8.25 3C7.00736 3 6 4.34315 6 6C6 7.65685 7.00736 9 8.25 9ZM6 12C6 13.6569 4.99264 15 3.75 15C2.50736 15 1.5 13.6569 1.5 12C1.5 10.3431 2.50736 9 3.75 9C4.99264 9 6 10.3431 6 12ZM22.5 12C22.5 13.6569 21.4926 15 20.25 15C19.0074 15 18 13.6569 18 12C18 10.3431 19.0074 9 20.25 9C21.4926 9 22.5 10.3431 22.5 12ZM18 6C18 7.65685 16.9926 9 15.75 9C14.5074 9 13.5 7.65685 13.5 6C13.5 4.34315 14.5074 3 15.75 3C16.9926 3 18 4.34315 18 6Z" fill="url(#paint5_radial_7257_41664)"/>
<defs>
<radialGradient id="paint0_radial_7257_41664" cx="0" cy="0" r="1" gradientUnits="userSpaceOnUse" gradientTransform="translate(22.4085 5.20338) scale(24.4896 26.1723)">
<stop offset="0.5561" stop-color="#6D4AFF"/>
<stop offset="0.9944" stop-color="#AA8EFF"/>
</radialGradient>
<radialGradient id="paint1_radial_7257_41664" cx="0" cy="0" r="1" gradientUnits="userSpaceOnUse" gradientTransform="translate(22.4085 5.20338) scale(24.4896 26.1723)">
<stop offset="0.5561" stop-color="#6D4AFF"/>
<stop offset="0.9944" stop-color="#AA8EFF"/>
</radialGradient>
<radialGradient id="paint2_radial_7257_41664" cx="0" cy="0" r="1" gradientUnits="userSpaceOnUse" gradientTransform="translate(22.4085 5.20338) scale(24.4896 26.1723)">
<stop offset="0.5561" stop-color="#6D4AFF"/>
<stop offset="0.9944" stop-color="#AA8EFF"/>
</radialGradient>
<radialGradient id="paint3_radial_7257_41664" cx="0" cy="0" r="1" gradientUnits="userSpaceOnUse" gradientTransform="translate(22.4085 5.20338) scale(24.4896 26.1723)">
<stop offset="0.5561" stop-color="#6D4AFF"/>
<stop offset="0.9944" stop-color="#AA8EFF"/>
</radialGradient>
<radialGradient id="paint4_radial_7257_41664" cx="0" cy="0" r="1" gradientUnits="userSpaceOnUse" gradientTransform="translate(22.4085 5.20338) scale(24.4896 26.1723)">
<stop offset="0.5561" stop-color="#6D4AFF"/>
<stop offset="0.9944" stop-color="#AA8EFF"/>
</radialGradient>
<radialGradient id="paint5_radial_7257_41664" cx="0" cy="0" r="1" gradientUnits="userSpaceOnUse" gradientTransform="translate(22.4085 5.20338) scale(24.4896 26.1723)">
<stop offset="0.5561" stop-color="#6D4AFF"/>
<stop offset="0.9944" stop-color="#AA8EFF"/>
</radialGradient>
</defs>
</svg>
