<svg width="36" height="36" viewBox="0 0 36 36" fill="none" xmlns="http://www.w3.org/2000/svg">
<path d="M23.625 16.5498C24.0806 16.5498 24.4502 16.9194 24.4502 17.375V18.2383C24.4501 21.5208 21.9976 24.2284 18.8252 24.6338V26.125C18.8252 26.5806 18.4556 26.9502 18 26.9502C17.5444 26.9502 17.1748 26.5806 17.1748 26.125V24.6338C14.0024 24.2284 11.5499 21.5208 11.5498 18.2383V17.375C11.5498 16.9194 11.9194 16.5498 12.375 16.5498C12.8306 16.5498 13.2002 16.9194 13.2002 17.375V18.2383C13.2003 20.8892 15.3491 23.0381 18 23.0381C20.6509 23.0381 22.7997 20.8892 22.7998 18.2383V17.375C22.7998 16.9194 23.1694 16.5498 23.625 16.5498ZM18 9.0498C20.191 9.0498 21.9501 10.9166 21.9502 13.1973V17.8027C21.9501 20.0834 20.191 21.9502 18 21.9502C15.809 21.9502 14.0499 20.0834 14.0498 17.8027V13.1973C14.0499 10.9166 15.809 9.0498 18 9.0498ZM18 10.7656C16.7393 10.7656 15.7002 11.8446 15.7002 13.1973V17.8027C15.7002 19.1554 16.7393 20.2344 18 20.2344C19.2607 20.2344 20.2998 19.1554 20.2998 17.8027V13.1973C20.2998 11.8446 19.2607 10.7656 18 10.7656Z" fill="#0C0C14"/>
</svg>
