<svg width="20" height="20" viewBox="0 0 20 20" fill="none" xmlns="http://www.w3.org/2000/svg">
<path fill-rule="evenodd" clip-rule="evenodd" d="M12.5 9.80263V5.19737C12.5 3.74399 11.3807 2.56579 10 2.56579C8.61929 2.56579 7.5 3.74399 7.5 5.19737V9.80263C7.5 11.256 8.61929 12.4342 10 12.4342C11.3807 12.4342 12.5 11.256 12.5 9.80263ZM10 1.25C7.92893 1.25 6.25 3.0173 6.25 5.19737V9.80263C6.25 11.9827 7.92893 13.75 10 13.75C12.0711 13.75 13.75 11.9827 13.75 9.80263V5.19737C13.75 3.0173 12.0711 1.25 10 1.25Z" fill="#5C5958"/>
<path fill-rule="evenodd" clip-rule="evenodd" d="M4.375 8.75C4.72018 8.75 5 9.02982 5 9.375V10.2381C5 12.9995 7.23858 15.2381 10 15.2381C12.7614 15.2381 15 12.9995 15 10.2381V9.375C15 9.02982 15.2798 8.75 15.625 8.75C15.9702 8.75 16.25 9.02982 16.25 9.375V10.2381C16.25 13.4789 13.7833 16.1437 10.625 16.4572V18.125C10.625 18.4702 10.3452 18.75 10 18.75C9.65482 18.75 9.375 18.4702 9.375 18.125V16.4572C6.21667 16.1437 3.75 13.4789 3.75 10.2381V9.375C3.75 9.02982 4.02982 8.75 4.375 8.75Z" fill="#5C5958"/>
</svg>
