<svg width="20" height="20" viewBox="0 0 20 20" fill="none" xmlns="http://www.w3.org/2000/svg">
<path d="M5.39844 2.40039C5.88589 2.40039 6.36477 2.53251 6.78223 2.78418L8.0127 3.52637C8.20405 3.64165 8.42309 3.70309 8.64648 3.70312H16.25C17.6859 3.70324 18.8494 4.86689 18.8496 6.30273V15.001C18.8496 16.437 17.686 17.6015 16.25 17.6016H3.75C2.31326 17.6015 1.14929 16.4358 1.15039 14.999L1.15723 4.99805C1.15842 3.56287 2.32263 2.40043 3.75781 2.40039H5.39844ZM3.75781 3.85059C3.15803 3.85063 2.66621 4.3094 2.61328 4.89551H4.32324C5.11295 4.89557 5.87024 5.21119 6.42578 5.77246L6.46777 5.81543C6.751 6.10158 7.13742 6.2627 7.54004 6.2627H13.7471C14.4925 6.26292 15.0967 6.86778 15.0967 7.61328V16.1514H16.25C16.8851 16.1513 17.3994 15.6361 17.3994 15.001V6.30273C17.3993 5.66776 16.885 5.15343 16.25 5.15332H8.64648C8.15918 5.15328 7.68102 5.02011 7.26367 4.76855L6.0332 4.02637C5.84174 3.91097 5.62199 3.85059 5.39844 3.85059H3.75781ZM2.60059 15C2.6001 15.6355 3.11457 16.1513 3.75 16.1514H13.6465V7.71289H7.54004C6.75025 7.71289 5.99309 7.39726 5.4375 6.83594L5.39453 6.79297C5.11136 6.50687 4.72578 6.34577 4.32324 6.3457H2.60645L2.60059 15Z" fill="#0C0C14" stroke="#0C0C14" stroke-width="0.2"/>
</svg>
