<svg width="20" height="20" viewBox="0 0 20 20" fill="none" xmlns="http://www.w3.org/2000/svg">
<path d="M13.9971 2.18359C14.5437 1.63929 15.4299 1.63929 15.9766 2.18359L17.8145 4.01367C18.3613 4.55821 18.3613 5.44081 17.8145 5.98535L6.85547 16.8984C6.48275 17.2695 6.00921 17.5237 5.49316 17.6299L2.67676 18.209C2.15646 18.316 1.69198 17.8647 1.78809 17.3428L2.31348 14.4893C2.41242 13.953 2.67343 13.4597 3.06055 13.0742L13.9971 2.18359ZM4.08301 14.1016C3.90441 14.2795 3.78556 14.5072 3.74023 14.7529L3.40234 16.5791L5.20117 16.21C5.44109 16.1605 5.6609 16.0425 5.83301 15.8711L14.4189 7.31934L12.6602 5.56055L4.08301 14.1016ZM13.6875 4.53711L15.4473 6.29688L16.75 4.99902L14.9863 3.24414L13.6875 4.53711Z" fill="#0C0C14" stroke="#0C0C14" stroke-width="0.2" stroke-linecap="square"/>
</svg>
