<svg width="20" height="20" viewBox="0 0 20 20" fill="none" xmlns="http://www.w3.org/2000/svg">
<path d="M12.3525 1.15039C12.8639 1.15042 13.3309 1.43915 13.5596 1.89648L14.4375 3.65039H16.25C17.6859 3.65039 18.8496 4.81406 18.8496 6.25V15C18.8496 16.4359 17.6859 17.5996 16.25 17.5996H3.75C2.31406 17.5996 1.15039 16.4359 1.15039 15V6.25C1.15039 4.81406 2.31406 3.65039 3.75 3.65039H5.5625L6.44043 1.89648C6.6691 1.43915 7.13615 1.15042 7.64746 1.15039H12.3525ZM6.83203 4.35352L6.4873 5.04492L6.45898 5.09961H3.75C3.11487 5.09961 2.59961 5.61487 2.59961 6.25V15C2.59961 15.6351 3.11487 16.1504 3.75 16.1504H16.25C16.8851 16.1504 17.4004 15.6351 17.4004 15V6.25C17.4004 5.61487 16.8851 5.09961 16.25 5.09961H13.541L13.5127 5.04492L13.168 4.35352L12.29 2.59961H7.70996L6.83203 4.35352ZM10 5.52539C12.4715 5.52539 14.4746 7.52853 14.4746 10C14.4746 12.4715 12.4715 14.4746 10 14.4746C7.52853 14.4746 5.52539 12.4715 5.52539 10C5.52539 7.52853 7.52853 5.52539 10 5.52539ZM10 6.97461C8.32934 6.97461 6.97461 8.32934 6.97461 10C6.97461 11.6707 8.32934 13.0254 10 13.0254C11.6707 13.0254 13.0254 11.6707 13.0254 10C13.0254 8.32934 11.6707 6.97461 10 6.97461Z" fill="#0C0C14" stroke="#0C0C14" stroke-width="0.2"/>
</svg>
